<?xml version="1.0" encoding="UTF-8"?>
<!DOCTYPE svg PUBLIC "-//W3C//DTD SVG 1.1//EN" "http://www.w3.org/Graphics/SVG/1.1/DTD/svg11.dtd">
<!-- Creator: CorelDRAW 2020 (64-Bit) -->
<svg xmlns="http://www.w3.org/2000/svg" xml:space="preserve" width="464.828mm" height="250.841mm" version="1.1" style="shape-rendering:geometricPrecision; text-rendering:geometricPrecision; image-rendering:optimizeQuality; fill-rule:evenodd; clip-rule:evenodd"
viewBox="0 0 8032.92 4334.91"
 xmlns:xlink="http://www.w3.org/1999/xlink"
 xmlns:xodm="http://www.corel.com/coreldraw/odm/2003">
 <defs>
  <style type="text/css">
   <![CDATA[
    .fil0 {fill:#020403}
    .fil2 {fill:#767576}
    .fil1 {fill:white}
   ]]>
  </style>
 </defs>
 <g id="Capa_x0020_1">
  <metadata id="CorelCorpID_0Corel-Layer"/>
  <path class="fil0" d="M2283.82 2690.37c27.32,26.57 56.76,62.82 80,102.91 86.29,148.83 28.95,176.3 -107.78,101.65 -74.06,-40.43 -138.51,-109.97 -181.68,-184.05 -17.31,-29.71 -55.89,-108.33 -23.66,-137.03 51.25,-45.64 200.18,84.48 233.11,116.52zm2841.3 -230.36c-102.19,17.29 -208.16,27.66 -312.19,42.58 -51.86,7.44 -103.78,14.22 -154.74,22.08 -29.37,4.53 -131.56,24.34 -99.29,-38.53l276.07 -255.2c40.35,-35.24 47.09,20.88 121.39,-11.02l189.66 181.2 -20.91 58.88zm311.8 -407.11l25.7 43.84c-19.38,36.66 -55.55,85.95 -81.07,126.46 -22.09,35.06 -57.34,96.37 -83.77,123.27 -67.9,-0.01 -54.39,0.83 -111.96,14.24l-185.09 -170.27 7.39 -54.82 428.81 -82.72zm-1518.65 49.11c16.74,-19.79 139.04,-87 175.17,-112.27 19.22,-13.45 33.85,-32.67 57.37,-20.45 74.57,38.75 221.68,352.79 460.2,93.01 56.75,-61.81 129.56,-127.65 180.75,-190.21 13.11,13.27 55.9,144.55 59.21,169.79 -71.44,80.42 -24.23,108.67 -44.64,135.98 -9.76,13.06 -36.65,31.53 -51.27,46.76 -20.33,21.18 -29.14,26.83 -47.36,44.1l-147.12 139.39c-17.99,17.11 -31.17,20.57 -47.39,41.74 -48.97,-12.68 -59.59,-40.24 -128.03,-28.2 -46.12,8.11 -79.54,34.3 -99.91,57.46l-232.12 -155.8c-117.4,-90.03 -151.15,-75.36 -135.78,-137.15 7.02,-28.22 -4.37,-65.81 0.93,-84.13zm1080.78 -25.02c-11.42,-9.9 -15.53,-18.62 -33.53,-32.06 -18.38,-13.73 -28.56,-12 -45.51,-20.93 -20.43,-10.77 -65.04,-154.09 -73.43,-184.01 -8.87,-31.62 83.8,-116.47 109.95,-139.41 38.08,-33.41 23.71,-43.77 90.4,-36.34 76.81,8.56 155.22,17.33 232.56,24.41 14.46,19.8 24.84,41.11 42.65,54.58 52.04,39.39 44.26,-15.03 87.1,59.08l55.22 105.44c-24.09,37.31 -26.02,30.2 -39.8,83.66l-425.62 85.58zm462.63 -353.22c8.47,-11.2 7.02,-11.14 11.5,-23.28 56.43,0.65 331.31,-4.35 361.46,12.16 -6.33,26.35 -27.52,34.56 -49.36,54.59l-158.29 136.65c-50.76,-19.77 -38.65,-30.7 -108.67,-22.62 -25.5,-43.37 -51.63,-91.33 -75.62,-138.13l18.97 -19.37zm-227.3 -312.89c10.77,13.59 35.47,85.49 43.98,107.69 20.07,52.29 30.29,58.42 21.46,84.78l-14.29 27.12 -235.67 -24.34 184.52 -195.25zm-2119.01 21.34c70.87,-67.24 119.42,-144.55 220.75,-193.65 107.12,-51.9 225.17,-64.3 350.2,-24.05 96.84,31.17 200.84,112.54 240.41,173.41 -136.91,-21.12 -186.05,-29.96 -299.87,37.72 -141.61,84.2 -198.73,347.57 -364.54,568.17 -43.71,58.15 -161.5,186.66 -217.31,246.13 -17.04,18.16 -28.77,27.68 -44.42,46.94l-134.31 146.14c-16.52,20.12 -24.32,29.31 -43.65,47.81l-268.67 292.12c-20.52,23.28 -62.8,84.93 -91.78,94.14 -6.84,-47.57 -32.03,-96.41 -54.41,-130.05 -14.8,-22.26 -25.89,-39.09 -39.04,-52.32 -51.36,-51.68 -49.89,-67.66 -141.41,-126.9 -67.28,-43.55 -97.82,-41.94 -119.76,-58.73l1007.8 -1066.88zm2158.78 -713.56c27.34,39.51 87.52,71.93 110.78,109.99 -12.24,23.18 -129.1,132.7 -163.58,167.41 -56.83,57.21 -105.54,111.05 -161.54,167.68l-410.84 418.27c-30.07,30.89 -183.48,194.2 -207.93,200.14 -30.42,7.4 -36.83,-13.25 -50.76,-27.63l-332.54 -332.06c-89.44,-98.72 -198.4,-228.22 -380.33,-278.06 -89.87,-24.62 -201.01,-26.38 -291.66,3.73 -95.96,31.88 -149.71,68.35 -208.71,126.35l-808 850.26c-50.96,59.29 -107.52,109.33 -159.88,169.41l-161.15 167.98c-60.35,69.54 -107.75,108.53 -50.52,240.22 50.78,116.84 208.42,288.24 367.74,298.03 98.79,6.07 127.7,-68.6 195.26,-135.5 81.25,-80.45 230.34,-254.35 317.31,-347.17 14.92,-15.93 26.38,-24.92 39.04,-40.14 15.22,-18.3 21.8,-29.3 39.57,-45.89 34.33,-32.03 47.32,-55.83 79.21,-85.32 31.56,-29.18 45.44,-52.29 79.42,-85.18 15.79,-15.28 22.27,-26.13 36.91,-42.44 14.66,-16.33 28.95,-25.84 43.02,-42.19l158.18 -177.23c194.12,-179.65 317.03,-484.42 572.69,-249.93 36.09,33.11 146.54,132.29 168.86,164.44l-211.31 136.29c-56.82,-35.09 13.41,-10.23 -94.4,-53.83 -6.4,-66.84 9.64,-187.73 0.88,-238.35 -70.02,-30.49 -62.81,3.96 -62.14,70.5 0.55,55.19 0.37,116.23 -2.13,171.21 -52.28,16.17 -75.55,34.53 -100.02,76.95 -54.37,94.3 4.11,209.12 101.41,231.07 60.83,13.72 103.81,-14.54 144.2,-35.49l190.78 127.57c58.4,40.34 130.27,96.98 193.93,129.31 -1.06,61.5 -9.42,88.58 21.8,136.58 50.46,77.58 149.8,100.49 234.22,41.32 57.07,-40 36.92,-62.27 66.75,-110.6l560.44 -79.42c27.47,29.15 30.7,46.67 70.54,64.13 62.58,27.43 149.54,-5.07 167.23,-83.26 13.2,-58.38 -7.17,-81.86 -26.29,-114.57l166.67 -258.26c128.62,-2.96 163.31,-46.4 146.72,-175.32 38.58,-21.2 185.23,-173.08 209.3,-178.36 23.58,-5.17 58.93,22.91 108.69,-2.44 102.24,-52.08 43.86,-237.45 -82.75,-192.38 -38.92,13.86 -47.9,34.52 -64.94,69.62 -44.93,7.66 -311.78,1.04 -360.86,-4.96 3.82,-38.44 82.62,-90.29 120.7,-126.03 31.27,-29.34 96.63,-101.25 134.21,-116.71 -2.19,45.13 -1.98,90.82 52.51,71.64 17.75,-24.06 18.35,-66.68 25.24,-103.01 3,-15.82 6.5,-33.22 10.18,-50.44 20.79,-97.26 -14.78,-51.75 -198.28,-32.34 4.01,47.53 1.57,53.4 34.07,62.01l24.03 6.68c-35.49,29.99 -39.51,44.43 -88.03,83.06 -13.88,11.05 -18.29,18.19 -30.7,30.07l-125.44 113.74c-35.23,-8.82 -24.64,-15.4 -71.79,-14.95 -23.07,-50.58 -40.62,-109.1 -61.86,-163.85 -23.25,-59.94 -12.29,-47.74 72.17,-133.93l226.08 -236.79c21.98,13.28 111.15,117.28 120.11,106.74 9.59,-12.57 79.52,-482.39 83.27,-536.08 -49.08,-1.03 -476.19,99.21 -525.75,117.68z"/>
  <path class="fil1" d="M2107.58 2499.11c21.94,16.79 52.48,15.18 119.76,58.73 91.52,59.24 90.05,75.22 141.41,126.9 13.15,13.23 24.24,30.06 39.04,52.32 22.37,33.64 47.57,82.48 54.41,130.05 28.98,-9.21 71.25,-70.86 91.78,-94.14l268.67 -292.12c19.33,-18.5 27.13,-27.69 43.65,-47.81l134.31 -146.14c15.64,-19.26 27.37,-28.78 44.42,-46.94 55.81,-59.48 173.6,-187.98 217.31,-246.13 165.81,-220.6 222.93,-483.96 364.54,-568.17 113.82,-67.68 162.96,-58.85 299.87,-37.72 -39.57,-60.87 -143.57,-142.23 -240.41,-173.41 -125.03,-40.25 -243.08,-27.85 -350.2,24.05 -101.33,49.1 -149.88,126.41 -220.75,193.65l-1007.8 1066.88z"/>
  <path class="fil0" d="M4194.04 3547.75c235.15,-9.85 455.63,-8.67 457.17,316.98 0.5,104.85 -30.75,210.21 -117,266.71 -87.35,57.22 -224.36,49.23 -341.71,45.69l1.54 -629.39zm36.86 770.52c129.44,-0.08 321.22,4.67 426.47,-88.02 206.72,-182.06 201.81,-569.52 8.93,-727.7 -122.73,-100.65 -235.27,-97.27 -423.2,-97.99 -250.94,-0.43 -209.25,-49.62 -209.54,447.98 -0.29,505.24 -32.51,465.88 197.35,465.73z"/>
  <path class="fil0" d="M7098.29 3913.5c-16.71,167.36 -136.44,304.34 -326.14,269.11 -363.69,-67.55 -280.15,-725.88 100.51,-642.32 160.91,35.32 244.83,180.77 225.62,373.21zm-346.95 -519.62c-242.3,35.89 -404.59,258.43 -369.22,538.75 35.28,279.62 257.57,437.79 507.03,395.49 244.04,-41.38 409.54,-245.98 369.06,-540.67 -37.09,-270.01 -251.52,-431.39 -506.87,-393.57z"/>
  <path class="fil0" d="M1661.13 3538.42c-19.27,40.23 -109.92,158.64 -142.2,199.29 -67.04,84.43 -332.73,417.41 -357.89,477.46 -19.28,46 3.49,95.72 47.37,105.81 52.6,12.09 265.36,3.53 333.91,3.46 62.39,-0.06 285.66,9.16 323.26,-14.38 35.86,-22.45 38.31,-79.92 7.7,-111.76 -28.91,-30.07 -99.28,-19.95 -148.06,-20.08 -112.84,-0.3 -228.35,1.68 -340.81,-2.5l422.17 -552.7c29.17,-39.76 143.48,-160.28 55.61,-218.36 -29.77,-19.68 -596.7,-21.16 -636.67,-3.07 -35.47,16.06 -59.67,71.61 -29.75,108.52 26.44,32.62 80.93,29.02 133.18,28.94 110.65,-0.15 221.56,0.36 332.18,-0.63z"/>
  <path class="fil0" d="M2379.87 3623.51l139.98 340.09 -277.45 0.93c6,-25.61 22.85,-56.79 34.32,-84.95 12.15,-29.83 22.25,-55.7 34.45,-87.26 17.6,-45.56 45.23,-126.94 68.71,-168.81zm-200.16 482.76l398.69 -2.39c16.29,44.76 67.08,202.44 114.76,219.43 33.09,11.79 72.54,0.11 89.57,-16.82 42.44,-42.19 -0.12,-115.71 -20.06,-162.4 -22.74,-53.25 -43.4,-105.13 -66.01,-159.49l-199.7 -477c-23.43,-57.6 -35.24,-116.29 -107.28,-119.09 -82.47,-3.21 -87.98,50.46 -116.58,109.64 -62.22,128.76 -139.44,337.25 -199.18,477.29 -23.16,54.3 -44.47,100.9 -67.09,158.87 -20.27,51.94 -61.77,119.24 -28.37,166.06 17.96,25.18 100.12,63.66 139.85,-30.49 22.16,-52.51 36.68,-114.4 61.39,-163.61z"/>
  <path class="fil0" d="M7628.78 3393.73c-305.72,51.05 -277.29,334.45 -218.32,406.82 58.01,71.19 112.87,86.18 224.89,116.86 95.41,26.13 199.23,37.1 230.39,116.84 48.72,124.68 -120.41,200.82 -311.26,128.13 -40.65,-15.48 -89.59,-55.92 -117.58,-59.7 -68.21,-9.21 -147.25,101.6 12.15,177.26 165.68,78.65 404.16,82.27 528.64,-51.96 55.24,-59.57 72.85,-174.56 35.34,-268.08 -80.17,-199.84 -346.9,-134.44 -456.57,-232.24 -28.13,-25.09 -46.27,-79.15 -20.37,-124.22 19.81,-34.48 51.37,-55.2 102.7,-68.18 118.95,-30.1 189.66,29.92 271.6,64.24 66.71,27.93 161.84,-71.56 6.83,-159.45 -78.34,-44.42 -186.38,-63.36 -288.42,-46.32z"/>
  <path class="fil0" d="M5127.94 3962.49c2.66,-15.78 128.49,-329.48 133.27,-336.46 9.42,12.82 133.18,314.33 137.58,338.01l-270.85 -1.55zm-62.71 140.93l384.97 -2.09c41.45,61.07 61.15,191.78 112.45,218.13 26.86,13.8 69.31,8.54 88.01,-10.52 43.67,-44.49 2.31,-117.52 -16.57,-164.82l-196.08 -474.44c-21.29,-51.73 -40.36,-102.78 -64,-155.46 -23.08,-51.43 -37.24,-119 -101.5,-122.58 -75.49,-4.2 -86.23,51.02 -111.85,104.4 -24.21,50.46 -42.96,106.23 -65.27,160.24l-193.82 470.61c-17.36,44.51 -67.39,124.81 -32.22,172.53 23.27,31.58 100.46,55.64 137.99,-30.53 21.53,-49.43 39.66,-115.28 57.91,-165.48z"/>
  <path class="fil1" d="M7098.29 3913.5c19.21,-192.44 -64.71,-337.89 -225.62,-373.21 -380.66,-83.56 -464.2,574.77 -100.51,642.32 189.7,35.23 309.43,-101.75 326.14,-269.11z"/>
  <path class="fil1" d="M3918.28 2102.01c-5.3,18.32 6.09,55.91 -0.93,84.13 -15.38,61.79 18.38,47.12 135.78,137.15l232.12 155.8c20.37,-23.16 53.79,-49.34 99.91,-57.46 68.43,-12.04 79.06,15.52 128.03,28.2 16.22,-21.17 29.4,-24.62 47.39,-41.74l147.12 -139.39c18.22,-17.27 27.03,-22.92 47.36,-44.1 14.62,-15.23 41.51,-33.7 51.27,-46.76 20.41,-27.31 -26.8,-55.57 44.64,-135.98 -3.31,-25.24 -46.1,-156.52 -59.21,-169.79 -51.2,62.56 -124,128.4 -180.75,190.21 -238.52,259.78 -385.63,-54.26 -460.2,-93.01 -23.51,-12.22 -38.15,7.01 -57.37,20.45 -36.13,25.28 -158.43,92.48 -175.17,112.27z"/>
  <path class="fil1" d="M4192.49 4177.14c117.36,3.54 254.36,11.53 341.71,-45.69 86.24,-56.5 117.5,-161.87 117,-266.71 -1.54,-325.65 -222.02,-326.83 -457.17,-316.98l-1.54 629.39z"/>
  <path class="fil0" d="M3358 768.74c-3.65,-36.49 -11.8,-33.43 17.03,-52.08l313.27 -197.34c26.48,10.93 30.44,22.91 74.13,34.68l33.18 271.45c-37.71,8.16 -61.68,33.14 -74.95,63.31l-362.66 -120.01zm299.6 -305.87c-17.49,15.61 -307.66,206.5 -342.15,218.58 -85.41,-73.2 -196.09,-1.69 -178.88,102.25 5.96,36.02 29.46,54.72 45.69,75.44 -11.36,77.51 -114,329.75 -129.5,430.16l40.98 -37.23c57.05,-49.37 35.04,-9.15 77.43,-148.08 12.37,-40.56 56.38,-206.23 72.62,-226.56 49.76,-17.18 63.44,-12.56 88.82,-49.28 19.35,0.82 307.31,87.97 358.96,113.44 42.04,20.73 -8.71,70.91 80.87,119.89 163.96,89.65 294.77,-193.28 80.17,-244.52l-31.26 -270.01c98.81,-34.12 117.68,-160.73 26.91,-225.83 -46.13,-33.08 -101.08,-24.02 -140.61,2.6 -44.26,29.82 -51.1,69.03 -50.05,139.14z"/>
  <path class="fil0" d="M292.58 3540.28l-0.7 641.47c-0.37,200.56 121.51,146.83 148.83,105.85 35.76,-53.64 -4.62,-651.67 15.03,-747.4 93.41,-13.22 346.54,40.87 277.36,-103.73 -27.37,-57.21 -86.34,-43.2 -160.11,-43.42l-402.37 -0.21c-62.89,-0.16 -137.04,-5.41 -161.26,42.6 -31.22,61.86 21.26,100.38 75.92,103.46 67.89,3.82 139.32,-3.17 207.31,1.39z"/>
  <path class="fil0" d="M5897.1 3546.51c2.61,186.72 -0.26,375.13 0.18,562.08 0.2,82.94 -17.77,194.08 63.7,214.69 112.18,28.38 97.78,-103.36 97.7,-184.2l-0.04 -592.5c50.44,-0.09 220.04,8.88 250.89,-11.22 27.52,-17.93 51.55,-63.42 19.17,-104.15 -26.08,-32.81 -72.77,-26.4 -122.53,-26.29l-414.56 -0.01c-39.63,-0.05 -108.73,-8.68 -139.55,9.38 -27.25,15.97 -42.49,67.38 -18.26,102.12 34.29,49.16 190.55,30.55 263.3,30.1z"/>
  <path class="fil0" d="M3304.23 3889.92l75.13 82.55c21.21,23 63.5,57.99 73.5,95.75 -39.32,15.41 -129.46,77.27 -212.74,0.85 -48.24,-44.27 -21.85,-151.32 64.1,-179.15zm18.29 -123.89c-23.72,-23.26 -47.12,-62.33 -40.68,-106.48 6.06,-41.58 41.1,-74.49 88.52,-63.6 92.78,21.32 31.46,169.69 -47.84,170.08zm-90.6 56.46c-200.84,81.48 -187.1,396.05 115.19,382.79 120,-5.26 144.24,-62.88 185.63,-73.71 19.59,27.86 95.56,107.84 132.71,45.31 36.41,-61.29 -43.69,-96.53 -64,-141.45 24.02,-43.72 108.63,-209.67 -13.43,-186.08 -41.45,8.01 -47.08,62.6 -62.04,122.21 -21.09,-7.83 -21.51,-11.47 -35.77,-30.8l-87.33 -100.42c13.46,-15.11 24.05,-20.19 39.95,-32.17 133.45,-100.45 104.63,-282.18 -55.36,-300.98 -94.44,-11.1 -172.28,27.04 -203.84,90.55 -50.22,101.1 39.14,198.71 48.29,224.73z"/>
  <path class="fil1" d="M6128.87 249.38c22.03,-2.19 18.76,-4.41 34.7,3.96l3.22 188.36c-21.92,8.25 -21.12,7.74 -43.62,0.79 -6.19,-28.6 -2.95,-70.89 -2.98,-101.55 -0.03,-38.77 -7.83,-81.1 8.68,-91.56zm-222.68 190.07c2.25,-11.47 72.83,-180.39 80.51,-191.76l42.15 1.68 73.32 193.89 -39.41 -1.95c-23.14,-32.01 8.82,-51.24 -96.54,-41.49 -8.11,21.05 -8.11,27.8 -17.93,43.38l-42.08 -3.75zm333.54 -89.29c43.75,-8.41 101.25,42.32 93.26,86.93 -36.53,12.75 -32.31,-10.8 -51.62,-31.15 -25.85,-27.25 -55.54,-8.39 -41.64,-55.78zm-452.16 23.5c-7.6,18.28 -9.64,49.11 -36.56,33.71 -23.97,-13.72 -1.35,-37.43 5.54,-54.23 -14.81,-30.61 -44.92,-38.79 -24.07,-70.78 24.13,0.21 39.31,30.49 65.22,48.13 38.59,0.3 44.63,-16.4 74.5,-10.03l4.57 26.59c-24.95,16.53 -53.3,15.85 -89.2,26.62zm449.77 -129.62c-8.61,-21.39 -31.55,-23.95 -12.47,-42.52 29.52,-28.73 57.56,26.07 50.18,68.36 -37.84,7.27 -27.52,-0.54 -37.71,-25.84zm-232.51 -51.18c-26.21,-39.12 11.05,-65.16 19.66,-102.25 -60.64,-13.18 -81.55,-15 -122.77,23.7 4.31,32.69 36.73,54.29 26.46,94.33 -41.65,1.27 -22.08,-1.31 -42.89,-34.56 -45.94,-73.4 -117.41,-13.5 -124.13,26.65 24.59,9.38 95.63,19.05 101.37,55.85 8.7,55.72 -56.46,-12.2 -101.31,-12.03 -110.43,0.41 -118.63,227.91 61.63,212.16 12.93,-24.79 11.43,-41.46 41.91,-41.38 31.19,39.1 -18.9,32.72 -9.66,81.86 5.51,29.3 33.51,49.42 70.28,52.44 196.88,16.14 113.3,-66.24 182.06,-60.92 23.95,56.56 -54.63,88.29 -65.27,96.09 22.4,25.5 44.28,42.13 65.99,67.51 40.56,47.43 23.35,61.61 63.92,69.32 4.76,-24.14 -4.55,-49.08 -19.55,-70.88 -16.13,-23.44 -36.18,-23.82 -35.54,-51.72 40.08,-18.43 53.14,38.55 133.59,11.68 38.25,-12.78 76.21,-45.65 83.04,-86.39 -59.72,1.62 -51.62,-5.68 -96.97,-13.07 -17.4,17.51 -28.16,41.51 -50.54,53.79 -26.73,14.67 -55.99,9.75 -57.83,-22.57 27.05,-21.54 33.74,2.55 62.7,-33.86 17.24,-21.67 17.77,-28.04 39.57,-49.15 45.61,15.62 107.92,55.39 149.54,-5.64 32.72,-47.97 20.47,-94.35 -13.44,-136.98 -17.66,5.24 -87.67,45.67 -107.16,8.4 -10.93,-20.9 14.46,-24.11 31.77,-25.36 30.84,-2.22 37.71,0.62 50.38,-19.61 27.58,-53.62 -39.75,-113.37 -77.69,-125.19 -124.3,-38.72 -105.43,80.72 -146.64,43.02 -19.26,-20.03 19.09,-60.83 43.36,-73.26l27.88 -15.56c-39.37,-31.28 -74.4,-36.19 -114.49,-4.17 -68.11,54.39 -10.69,92.11 -69.23,87.76z"/>
  <path class="fil0" d="M4471.83 853.05c0.15,110.99 -7.64,712.7 3.22,767.39 17.99,-6.28 156.66,-148.41 180.25,-172.29 93.46,-94.62 67.96,-52.12 67.75,-290.28l0.02 -372.33c-1.25,-56.26 -24.55,-51.82 -77.61,-51.87 -27.41,-0.03 -123.69,-4.12 -142.54,1.83 -41.66,13.15 -31.16,64.45 -31.09,117.54z"/>
  <path class="fil1" d="M4999.06 2076.99l425.62 -85.58c13.78,-53.46 15.71,-46.35 39.8,-83.66l-55.22 -105.44c-42.85,-74.11 -35.06,-19.69 -87.1,-59.08 -17.8,-13.47 -28.19,-34.78 -42.65,-54.58 -77.34,-7.09 -155.75,-15.85 -232.56,-24.41 -66.69,-7.43 -52.31,2.93 -90.4,36.34 -26.15,22.94 -118.82,107.79 -109.95,139.41 8.39,29.93 53,173.25 73.43,184.01 16.95,8.93 27.13,7.21 45.51,20.93 18,13.44 22.11,22.16 33.53,32.06z"/>
  <path class="fil0" d="M4829.42 72.7c23.37,31.71 43.44,40.26 71.29,73.16 -10.65,27.44 -103.72,119.09 -134.02,145.56 -20.22,17.67 -91.25,105.58 -137.33,144.22 -23.78,-25.87 -111.6,-126.29 -135.65,-135.04 -31.5,19.52 -167.55,170.44 -217.41,213.76 -31.84,27.66 -199.06,200.02 -211.7,222.86 8.98,23.25 42.33,54.63 56.57,64.79 35.63,-30.5 353.81,-356.42 373.14,-363.49 23.84,26.39 44.1,44.85 64.81,68.03 21.96,24.56 38.74,49.76 68.06,66.41 39.45,-15.04 214.45,-210.25 259.44,-259.15 25.93,-28.19 59.83,-63.12 88.06,-89.4 13.48,6.76 1.4,-0.41 11.47,7.55 27.19,21.49 50.57,58.31 79.46,71.62l60.96 -303.57c-42.38,4.71 -272.44,57.63 -297.14,72.7z"/>
  <path class="fil0" d="M4852.7 1227.1c43.66,-11 246.68,-226.7 250.26,-252.21 7.06,-50.3 3.99,-476.43 -8.94,-491.35 -17.81,-20.56 -216.06,-15.7 -231.78,1.02 -19.36,20.59 -10.43,196.41 -10.35,240.46 0.3,166.47 -3.37,335.96 0.81,502.08z"/>
  <path class="fil0" d="M921.51 3393.78c-84.32,23.21 -65.97,114.95 -65.94,208.81l0.16 548.69c0.31,89.35 -4.13,192.89 106.87,170.67 78.47,-15.71 60.36,-131.49 60.12,-213.35 -0.28,-91.45 0.03,-182.93 -0.13,-274.34 -0.11,-62.57 9.34,-353.99 -12.11,-400.63 -13.77,-29.93 -46.66,-51.49 -88.97,-39.85z"/>
  <path class="fil0" d="M6004.83 192.86c58.53,4.36 1.12,-33.37 69.23,-87.76 40.09,-32.02 75.12,-27.11 114.49,4.17l-27.88 15.56c-24.27,12.42 -62.61,53.23 -43.36,73.26 41.21,37.7 22.34,-81.74 146.64,-43.02 37.94,11.82 105.28,71.57 77.69,125.19 -12.67,20.23 -19.55,17.39 -50.38,19.61 -17.31,1.25 -42.7,4.46 -31.77,25.36 19.49,37.27 89.5,-3.15 107.16,-8.4 33.91,42.64 46.16,89.01 13.44,136.98 -41.62,61.03 -103.93,21.27 -149.54,5.64 -21.79,21.11 -22.33,27.47 -39.57,49.15 -28.96,36.42 -35.66,12.32 -62.7,33.86 1.84,32.33 31.09,37.25 57.83,22.57 22.38,-12.28 33.14,-36.28 50.54,-53.79 45.35,7.39 37.25,14.69 96.97,13.07 -6.84,40.74 -44.79,73.61 -83.04,86.39 -80.45,26.87 -93.51,-30.11 -133.59,-11.68 -0.63,27.91 19.42,28.28 35.54,51.72 15,21.8 24.3,46.74 19.55,70.88 -40.57,-7.71 -23.35,-21.88 -63.92,-69.32 -21.71,-25.38 -43.59,-42.01 -65.99,-67.51 10.63,-7.81 89.22,-39.53 65.27,-96.09 -68.76,-5.32 14.82,77.06 -182.06,60.92 -36.77,-3.02 -64.77,-23.13 -70.28,-52.44 -9.24,-49.14 40.86,-42.76 9.66,-81.86 -30.49,-0.09 -28.98,16.59 -41.91,41.38 -180.26,15.74 -172.06,-211.75 -61.63,-212.16 44.85,-0.17 110.01,67.75 101.31,12.03 -5.75,-36.8 -76.78,-46.46 -101.37,-55.85 6.72,-40.15 78.2,-100.05 124.13,-26.65 20.81,33.25 1.24,35.83 42.89,34.56 10.27,-40.03 -22.15,-61.63 -26.46,-94.33 41.22,-38.69 62.14,-36.87 122.77,-23.7 -8.61,37.09 -45.87,63.13 -19.66,102.25zm-196.08 302.99c27.89,46.25 13.89,49.84 66.21,78.81 49.41,27.35 85.39,7.69 119.75,26.44 63.15,34.46 96.64,98.56 134.41,157.82 116.62,15.89 82.04,-37.59 66.88,-104.96 178.65,-15.32 146.18,-98.15 199.13,-154.55 57.59,-61.34 52.37,-136.18 4.95,-205.99 -23.85,-35.12 5.27,-87.69 -72.78,-146.76 -30.8,-23.31 -67.34,-30.51 -92.9,-47.4 -35.76,-23.63 -24.53,-45.02 -92.74,-53.68 -60.34,-7.66 -57.59,26.47 -110.86,7.82 -64.9,-22.72 -112.65,-10.19 -158.2,33.26 -39.59,37.75 -90.37,-10.77 -140.65,78.84 -7.63,13.6 -11.43,33.53 -21.06,46.05 -7.18,9.34 -77.02,46.17 -66.89,153.86 7.49,79.62 74.88,131.9 164.74,130.45z"/>
  <path class="fil0" d="M4116.25 974.61c-31.43,17.35 -23.02,41.74 -22.61,85.71l0.05 213.4c-0.35,49.91 -7.69,63.52 22.65,90.27 19.87,17.52 210.2,209.95 219.47,209.49 16.64,-0.81 8.57,-166.37 8.56,-196.13l-0.09 -317.04c0.3,-33.96 8.02,-74.23 -19.88,-87.1 -20.22,-9.33 -191.81,-7.63 -208.15,1.39z"/>
  <path class="fil1" d="M5125.13 2460.01l20.91 -58.88 -189.66 -181.2c-74.3,31.91 -81.04,-24.22 -121.39,11.02l-276.07 255.2c-32.27,62.86 69.92,43.05 99.29,38.53 50.96,-7.86 102.88,-14.64 154.74,-22.08 104.03,-14.93 210,-25.29 312.19,-42.58z"/>
  <path class="fil1" d="M3358 768.74l362.66 120.01c13.28,-30.17 37.24,-55.15 74.95,-63.31l-33.18 -271.45c-43.69,-11.77 -47.65,-23.75 -74.13,-34.68l-313.27 197.34c-28.83,18.65 -20.68,15.6 -17.03,52.08z"/>
  <path class="fil1" d="M5008.12 2135.62l-7.39 54.82 185.09 170.27c57.57,-13.41 44.06,-14.25 111.96,-14.24 26.43,-26.9 61.68,-88.21 83.77,-123.27 25.52,-40.51 61.69,-89.8 81.07,-126.46l-25.7 -43.84 -428.81 82.72z"/>
  <path class="fil1" d="M2050.71 2573.86c-32.23,28.7 6.34,107.32 23.66,137.03 43.17,74.08 107.62,143.61 181.68,184.05 136.73,74.65 194.07,47.18 107.78,-101.65 -23.25,-40.09 -52.68,-76.34 -80,-102.91 -32.93,-32.03 -181.86,-162.15 -233.11,-116.52z"/>
  <path class="fil1" d="M5442.71 1743.14c23.99,46.81 50.11,94.77 75.62,138.13 70.02,-8.08 57.91,2.85 108.67,22.62l158.29 -136.65c21.84,-20.03 43.03,-28.24 49.36,-54.59 -30.15,-16.51 -305.03,-11.51 -361.46,-12.16 -4.48,12.13 -3.03,12.08 -11.5,23.28l-18.97 19.37z"/>
  <path class="fil1" d="M2379.87 3623.51c-23.48,41.87 -51.1,123.25 -68.71,168.81 -12.2,31.56 -22.3,57.43 -34.45,87.26 -11.47,28.16 -28.32,59.34 -34.32,84.95l277.45 -0.93 -139.98 -340.09z"/>
  <path class="fil1" d="M5127.94 3962.49l270.85 1.55c-4.41,-23.68 -128.16,-325.19 -137.58,-338.01 -4.78,6.97 -130.61,320.68 -133.27,336.46z"/>
  <path class="fil1" d="M3304.23 3889.92c-85.95,27.83 -112.34,134.88 -64.1,179.15 83.28,76.43 173.42,14.56 212.74,-0.85 -10,-37.76 -52.3,-72.75 -73.5,-95.75l-75.13 -82.55z"/>
  <path class="fil1" d="M5049.86 1606.14l235.67 24.34 14.29 -27.12c8.83,-26.36 -1.39,-32.5 -21.46,-84.78 -8.52,-22.19 -33.21,-94.09 -43.98,-107.69l-184.52 195.25z"/>
  <path class="fil1" d="M3322.52 3766.03c79.3,-0.39 140.62,-148.76 47.84,-170.08 -47.42,-10.89 -82.45,22.02 -88.52,63.6 -6.44,44.15 16.96,83.23 40.68,106.48z"/>
  <path class="fil0" d="M6005.25 299.21c8.52,20.84 23.43,41.79 25.67,65.63l-50.23 -0.99c1.66,-21.05 11.95,-50.61 24.56,-64.64zm-99.05 140.24l42.08 3.75c9.82,-15.57 9.82,-22.33 17.93,-43.38 105.36,-9.74 73.4,9.49 96.54,41.49l39.41 1.95 -73.32 -193.89 -42.15 -1.68c-7.67,11.37 -78.26,180.29 -80.51,191.76z"/>
  <path class="fil0" d="M5756.56 353.14c-6.89,16.79 -29.51,40.51 -5.54,54.23 26.92,15.41 28.96,-15.42 36.56,-33.71 35.9,-10.77 64.25,-10.09 89.2,-26.62l-4.57 -26.59c-29.88,-6.37 -35.92,10.33 -74.5,10.03 -25.9,-17.64 -41.08,-47.91 -65.22,-48.13 -20.85,31.99 9.26,40.17 24.07,70.78z"/>
  <path class="fil0" d="M6163.58 253.34c-15.95,-8.37 -12.68,-6.15 -34.7,-3.96l-2.49 191.71 38.08 -0.6 -0.89 -187.16z"/>
  <path class="fil0" d="M6281.38 405.94c19.31,20.35 15.09,43.91 51.62,31.15 7.99,-44.61 -49.51,-95.35 -93.26,-86.93 -13.89,47.39 15.8,28.53 41.64,55.78z"/>
  <path class="fil0" d="M6275.05 269.88c7.37,-42.28 -20.67,-97.08 -50.18,-68.36 -19.08,18.57 3.86,21.13 12.47,42.52 10.19,25.31 -0.13,33.11 37.71,25.84z"/>
  <path class="fil1" d="M6005.25 299.21c-12.61,14.03 -22.9,43.59 -24.56,64.64l50.23 0.99c-2.24,-23.84 -17.15,-44.8 -25.67,-65.63z"/>
  <path class="fil2" d="M6163.58 253.34l0.89 187.16 -38.08 0.6 2.49 -191.71c-16.51,10.47 -8.71,52.79 -8.68,91.56 0.02,30.66 -3.21,72.95 2.98,101.55 22.5,6.95 21.7,7.45 43.62,-0.79l-3.22 -188.36z"/>
 </g>
</svg>
