<?xml version="1.0" encoding="UTF-8"?>
<!DOCTYPE svg PUBLIC "-//W3C//DTD SVG 1.1//EN" "http://www.w3.org/Graphics/SVG/1.1/DTD/svg11.dtd">
<!-- Creator: CorelDRAW 2020 (64-Bit) -->
<svg xmlns="http://www.w3.org/2000/svg" xml:space="preserve" width="45.2816mm" height="61.5952mm" version="1.1" style="shape-rendering:geometricPrecision; text-rendering:geometricPrecision; image-rendering:optimizeQuality; fill-rule:evenodd; clip-rule:evenodd"
viewBox="0 0 495.2 673.61"
 xmlns:xlink="http://www.w3.org/1999/xlink"
 xmlns:xodm="http://www.corel.com/coreldraw/odm/2003">
 <defs>
  <style type="text/css">
   <![CDATA[
    .fil1 {fill:#FEFEFE}
    .fil4 {fill:#FEFEFE}
    .fil3 {fill:#ED3237}
    .fil2 {fill:#00A859}
    .fil0 {fill:#0B0C0B}
    .fil5 {fill:#9A9B9A}
   ]]>
  </style>
 </defs>
 <g id="Capa_x0020_1">
  <metadata id="CorelCorpID_0Corel-Layer"/>
  <path class="fil0" d="M40.73 65.31c0,40.11 5.33,75.27 5.75,113.26l3.04 50.66c0.35,4.57 1.26,5.23 1.37,10.24 -5.39,2.59 -36.28,2.42 -36.28,27.57 0,6.52 2.54,9.64 8.71,10.16 3.55,-5.29 2.05,-2.07 3.13,-9.93 1.61,-11.68 7.41,-14.78 24.44,-16.2l4.28 66.83c0.47,5.69 -0.35,11.46 0.29,17.13 5.53,49.36 -2.19,9.35 -39.4,82.93 -5.61,11.09 -15.96,43.6 -15.96,56.61 0,13.48 -1.48,28.16 6.98,39.46 10.22,13.64 29.47,13.4 36.92,0.09 2.09,-3.73 1.26,-3.33 2.48,-6.32 4.02,-9.87 4.83,4.13 14.73,-8.39 4.29,-5.42 -2.4,-1.86 4.19,-4.52 0,13.05 1.35,32.25 3.48,44.41 4.32,24.59 22.09,41.87 43.46,52.32 8.57,4.19 8.64,3.79 10.55,14.13 1.36,7.35 3.46,13.79 3.46,21.21 -15.35,0 -30.82,10 -34.98,24.63 -6.28,22.1 22.73,21.81 40.78,21.81 11.96,0 39.59,-1.51 48.82,-7.78 15.01,-10.2 -1.52,-57.53 7.78,-57.53l23.22 0c0,6.16 -0.83,9.02 -1.1,12.39 -0.85,10.58 -2.59,37.92 3.67,43.09 11.12,9.21 93.21,19.53 93.21,-6.14 0,-9.31 -6.75,-16.63 -11.93,-21.45 -9.27,-8.63 -14.64,-5.81 -24.35,-10.48 0.17,-7.8 3.24,-20.36 4.95,-28.43 3.54,-16.78 4.39,-10.29 14.28,-19.09 11.76,-10.46 22.67,-23.33 26.19,-42.02 4.47,-23.76 2.54,-73.26 4.52,-96.92 1.08,-12.92 -0.47,-3.65 25.52,-3.65 31.06,0 38.64,-8.85 55.66,-18.37 9.34,-5.23 34.25,6.41 52.87,-10.97 3.76,-3.51 7.15,-6.47 8.94,-11.37 2.64,-7.23 -0.45,-10.85 3.96,-16.35 2.98,-3.72 6.7,-5.81 10.05,-10.27 18.37,-24.47 25.64,-63.49 0.95,-85.42 -11.79,-10.47 -20.31,-8.34 -41.01,-8.34l0 -1.45c21.38,0 27.48,-0.74 38.86,-11.93 8.94,-8.79 14.83,-20.15 14.83,-37.41 -14.41,-6.92 -42.25,1.7 -51.59,13.72 -4.63,5.97 -4.93,10.54 -7.91,16.76 -3.76,-2.75 -3.13,-5.19 -6.02,-9.94 -8.3,-13.64 -17.88,-7.05 -11.83,2.97 2.55,4.22 4.78,7.45 7,12.03 14.56,30.04 -19.66,-6.93 -46.41,24.76 -14.67,17.38 -17.12,41.86 -8.93,62.49 1.84,4.64 4.55,9.64 6.65,13.66 3.13,6 5.72,6.28 7.29,13.02 -16.74,3.9 -29.6,9.22 -48.53,-3.71 -3.34,-2.28 -5.42,-3.75 -7.75,-6.83 -4.74,-6.27 -1.77,-6.63 -1.77,-11.22l-1.45 -18.87c0,-25.3 -2.81,-27.5 5.26,-32.47 35.6,-21.91 42.86,-66.91 17.99,-99.63 -3.88,-5.1 -8.23,-8.45 -13.51,-12.61 -9.04,-7.12 -14.95,-4.12 -16.68,-13.8l-2.81 -29.12c-1.44,-11.27 -2.56,-23.98 -3.27,-34.47 -0.78,-11.69 -6.52,-57.17 -9.77,-65.7 -6.5,-17.05 -22.31,-28.02 -40.13,-33.88 -7.64,-2.51 -22.32,-7.07 -30.06,-7.67 -29.66,-2.31 -26.72,-2.99 -57.96,-2.99 -28.37,0 -62.49,6.45 -82.74,14.49 -13.47,5.35 -19.13,9.43 -29.66,18.23 -7.27,6.08 -16.76,20.21 -16.76,32.58z"/>
  <path class="fil1" d="M61.05 46.44c0,-4.33 4.68,-6.4 7.43,-8.54 20.68,-16.09 38.32,-18.36 62.35,-23.27 33.06,-6.76 141.47,-5.01 149.36,24.55 -8.09,12.08 -28.13,18.73 -45.55,22.66 -36.36,8.2 -37.27,3.32 -61.23,6.98 -17.88,2.73 -112.36,-5.79 -112.36,-22.38z"/>
  <path class="fil1" d="M55.25 53.7c10.35,5.48 6.49,5.6 21.21,10.72 50.72,17.66 156.38,17.62 198.25,-10.41 5.13,-3.44 7.03,-6.17 11.29,-9.02 6.25,13.02 8.12,45.2 10.43,63.59l6.99 67.03c-9.96,-0.22 -8.51,-3.07 -28.43,2.05 -21.07,5.41 -47.04,29.97 -47.04,54.55 -4.54,-0.38 -5.16,-1.45 -10.16,-1.45 -8.06,0 -8.61,1.45 -15.96,1.45 -1.18,-14.18 -12.27,-28.16 -20.66,-35.94 -3.73,-3.46 -11.25,-9.15 -16.2,-11.37 -37.7,-16.92 -76.51,1.83 -90.87,32.78 -7.27,15.66 -1.4,19.42 -11.59,21.79 -2.1,-4.38 -6.17,-80.78 -7.18,-92.96 -1.31,-15.87 0.18,-33.48 -1.92,-48.87 -1.95,-14.25 -3.53,-32.73 1.85,-43.93z"/>
  <path class="fil1" d="M345.5 229.3c-34.53,8.04 -29.19,8.17 -29.01,-14.53 0.13,-15.7 -8.39,-35.61 16.57,-10.76 4.78,4.76 12.25,16.86 12.44,25.29z"/>
  <path class="fil2" d="M445.64 264.13c2.46,-9.19 19.15,-14.97 24.67,-23.22 -5.25,-3.52 -0.35,-5.05 -14.52,4.35 -9.66,6.4 -10.02,8.61 -14.51,11.62 4.5,-19.32 19.78,-26.12 40.64,-26.12 -0.43,19.47 -16.61,31.74 -36.28,33.38z"/>
  <path class="fil1" d="M293.25 185.76c5,0 5.62,1.07 10.16,1.45 1.42,6.12 1.7,36.06 3.96,52.64 1.27,9.3 0.22,19.23 0.34,28.69 0.11,9.22 1.51,16.31 1.51,27.52 -18.84,1.57 -39.68,5.85 -58.28,-17.18 -33.06,-40.94 -0.95,-93.11 42.32,-93.11z"/>
  <path class="fil1" d="M135.07 303.31c-52.18,0 -72.81,-62.22 -40.5,-95.65 0.21,-0.21 0.51,-0.52 0.72,-0.73l1.49 -1.41c29.26,-27.23 71.72,-19.9 90.56,17.94 7.08,14.22 6.96,30.5 0.87,45.92 -1.92,4.86 -8.2,14.15 -11.55,17.48 -1.33,1.32 -6.46,5.39 -7.99,6.52 -2.98,2.2 -5.83,3.33 -9.38,5.13 -7.16,3.64 -13.98,4.8 -24.23,4.8z"/>
  <path class="fil1" d="M317.93 246.71c4.35,-2.09 11.63,-3.03 16.34,-3.99 10.54,-2.14 12.68,-4.79 13.81,-0.21 1.13,4.57 -3.79,22.1 -9.5,30.65 -2.34,3.5 -17.03,23.82 -19.13,12.84 -0.67,-3.51 -0.06,-16.07 -0.04,-20.46 0.04,-8.82 -1.49,-11.54 -1.49,-18.83z"/>
  <path class="fil1" d="M82.82 548.77l1.26 -7.45c-8.46,-13.11 -4.22,-7.04 -6.86,-30.69 -1.38,-12.36 -1.01,-24.99 -1.66,-37.53 -1.17,-22.69 -7.82,-36.42 2.02,-50.22 4.03,-5.65 5.23,-5.86 5.23,-15.08 -8.55,-1.81 -12.33,4.83 -18.97,15.86 -6.73,11.19 -14.01,26.19 -16.6,40.12 -1.6,8.61 -0.17,8.58 2.6,14.73 1.51,3.36 5.19,11.1 2.66,13.63 -4.25,4.25 -2.61,-2.38 -11.77,-4.51 -8.17,7.75 -2.01,7.57 -5.26,17.96 -3.44,11.01 -26.61,17.36 -23.82,-29.61 2.09,-35.24 22.14,-76.13 45.36,-99.78 13.67,-13.92 12.65,-3.34 9.91,-36.68l-4.22 -68.34c-1.03,-9.12 -1.88,-18.21 2.69,-21.56 7.36,5.39 -1.73,20.96 22.83,45.38 19.65,19.54 48.79,26.15 76.72,13.54l19.32 -14.06c18.23,-18.97 16.1,-32.02 20.45,-50.66 10.06,-0.84 4.31,-4.07 21.77,0 0,36.32 30.82,67 69.72,65.35 16.64,-0.71 12.58,-10.19 14.46,24.62 2.23,41.15 -0.48,129.72 -2.92,177.05 -0.93,17.99 -0.19,24.97 -7.01,37.98 -16.73,31.87 -53.96,42.41 -87.92,47.05 -24.82,3.39 -58.17,-0.31 -78.71,-7.16 -22.02,-7.34 -37.52,-17.31 -49.16,-36.46l-1.61 -2.62c-0.11,-0.17 -0.33,-0.59 -0.54,-0.86z"/>
  <path class="fil3" d="M447.26 293.15l0.35 -5.07 -6.33 0.62 -4.35 0.13c1.5,-1.81 -0.51,-0.45 1.92,-1.47 1.3,-0.95 0.39,-0.7 3.14,-2.06 1.56,-0.77 2.17,-0.69 3.64,-1.09 12.24,0.83 24.26,-1.46 33.92,15.68 6.53,11.59 6.01,28.42 1.35,41.6 -5.31,15.02 -20.16,35.75 -38.15,36 -11.31,0.16 -11.79,-4.29 -22.79,-2.71 -18.23,2.61 -24.3,-2.58 -33.43,-13.8 -6.56,-8.08 -12.79,-23.81 -13.51,-37.36 -0.9,-17.12 5.05,-29.19 14.29,-36.54 10.96,-8.73 18.5,-7.65 28.57,-4.81 1.38,0.39 3.43,0.78 4.48,1.33 3.26,1.69 2.26,0.33 3.5,3.76 -4.64,-2.23 -6.97,-2.23 -11.61,0 2.4,4.53 0.9,3.46 5.7,5.91 6.89,3.52 21.6,4.86 29.3,-0.1z"/>
  <path class="fil1" d="M320.83 375.88c9.9,2.31 26.64,23.75 63.37,6.65 12.01,-5.59 13.26,4.96 23.71,4.96 6.28,0 12.58,-2.42 15.95,-2.2 6.18,0.4 2.78,3.65 20.33,3.65 5,0 5.62,-1.07 10.16,-1.45 -5.71,24.49 -44.02,15.54 -47.85,15.89 -8.86,0.82 -26.33,20.39 -49.38,20.39 -13.94,0 -23.82,1.47 -34.83,-4.35 0,-11.45 2.44,-35.42 -1.45,-43.54z"/>
  <path class="fil4" d="M58.15 470.21l3.29 -14.13c0.13,-0.25 0.42,-0.73 0.53,-0.92 0.1,-0.2 0.33,-0.63 0.53,-0.92l0 30.48c0,-11.56 -4.35,-9.67 -4.35,-14.51z"/>
  <path class="fil1" d="M258.42 635.65c18.56,1.54 36.18,4.6 37.73,23.22 -14.13,6.78 -74.01,4.45 -74.01,-5.8 0,-14.19 -1.6,-34.79 1.45,-47.89 30.2,0 45.45,-22.25 40.78,-3.02 -2.23,9.15 -5.95,24.33 -5.95,33.49z"/>
  <path class="fil1" d="M133.62 600.82c6.79,0.15 13.57,2.91 19.25,3.97 12.27,2.3 18.41,0.4 20.66,4.01 1.25,2 2.23,18.31 2.19,22.48 -0.03,3.72 -0.2,8.02 0.03,11.69l0.67 7.35c-0.56,8.27 -4.4,7.41 -8.14,8.39 -14.23,3.7 -52.66,8.05 -66.59,-1.29 1.72,-20.67 30.96,-20.19 37.73,-21.77 0,-14.81 -5.45,-21.9 -5.8,-34.83z"/>
  <path class="fil0" d="M97.33 545.72l-4.84 -0.76 -0.6 3.61c11.6,12.3 88.18,20.62 107.09,20.38 22.94,-0.3 90.4,-9.56 101.53,-26.18l-3.11 -4.18c-1.81,0.43 -31.83,18.71 -67.99,20.16 -29.52,1.18 -11.5,4.45 -55.21,1.49 -8.29,-0.56 -20.57,-1.33 -27.68,-2.8 -8.18,-1.69 -17.37,-2.78 -25.39,-5.09 -7.76,-2.24 -15.59,-6.06 -23.8,-6.63z"/>
  <path class="fil0" d="M157.75 242.36c3.08,4.44 2.71,4 0.64,8.71 -0.98,0.62 -0.15,1.81 -5.71,1.05 -5.41,-8.82 1.09,-11.96 5.06,-9.76zm-22.68 7.26c0,35.65 31.93,29.58 31.93,2.9 0,-26.77 -31.93,-24.85 -31.93,-2.9z"/>
  <path class="fil0" d="M271.49 240.83c3.43,-2.18 1.51,-1.68 5.8,-2.83 1.89,2.82 2.29,2.95 3.94,7.26l-5.39 4.54c-4.26,-1.94 -7.38,-4.27 -4.35,-8.97zm15.96 8.78c0,-9.92 -6.39,-20.32 -15.96,-20.32 -26.96,0 -17.63,52.18 6.06,39.54 5.81,-3.1 9.91,-10.74 9.91,-19.22z"/>
  <path class="fil0" d="M217.79 312.02c-22.44,0 -13.5,-11.61 -24.67,-11.61 -12.17,0 1.37,23.22 21.77,23.22 15.73,0 24.55,-8.77 27.57,-21.77l-4.67 -4.04c-7.89,3.62 -3.33,-0.14 -8.97,7.82 -2.66,3.75 -5.27,6.38 -11.03,6.38z"/>
  <path class="fil0" d="M120.55 166.89c0,1.77 3,4.35 5.8,4.35 4.14,0 7.37,-7.02 15.57,-9.1 10.44,-2.66 13.17,0.68 13.59,-5.47 1.07,-15.66 -34.96,-1.84 -34.96,10.22z"/>
  <path class="fil0" d="M255.52 149.48l0 7.26c5.26,1.23 12.21,1.32 16.91,3.41 9.02,4.03 1.46,5.3 15.02,5.3 2.03,-8.72 -1.62,-11.26 -9.58,-15.09 -7.9,-3.8 -15.43,-4.3 -22.34,-0.88z"/>
  <path class="fil5" d="M82.82 548.77l0 -3.09c4.61,0.38 5.78,1.39 9.07,2.9l0.6 -3.61 4.84 0.76c-1.63,-1.17 0.65,0.04 -2.72,-1.68 -0.39,-0.2 -2.75,-1.29 -2.98,-1.37 -3.53,-1.38 -2.28,-1.24 -7.55,-1.35l-1.26 7.45z"/>
  <path class="fil3" d="M438.85 287.35l2.43 1.35 6.33 -0.62 -0.35 5.07c3.27,-3.1 -0.21,-6.61 -1.62,-8.96 -1.47,0.4 -2.08,0.32 -3.64,1.09 -2.75,1.36 -1.84,1.11 -3.14,2.06z"/>
  <path class="fil1" d="M158.39 251.07c-6.34,-0.51 -5.76,-0.75 -5.91,-7.26 2.3,-1.14 1.78,-1.11 5.26,-1.45 -3.98,-2.2 -10.47,0.94 -5.06,9.76 5.56,0.76 4.73,-0.42 5.71,-1.05z"/>
  <path class="fil1" d="M281.23 245.26c-0.42,0.19 -1.01,0.06 -1.23,0.62 -0.33,0.83 -1.78,0.88 -2.35,1.12 -1.37,0.57 0.25,0.23 -3.27,1.16 -3.15,-4.71 -2.38,-0.97 -2.9,-7.33 -3.02,4.7 0.09,7.04 4.35,8.97l5.39 -4.54z"/>
 </g>
</svg>
